<svg width="95" height="286" viewBox="0 0 95 286" fill="none" xmlns="http://www.w3.org/2000/svg">
<path fill-rule="evenodd" clip-rule="evenodd" d="M43.8399 1.15185L43.8379 1.06885C43.8379 1.06885 30.354 1.72845 25.4332 3.47065C22.4368 3.6172 24.144 18.0512 24.144 18.0512L25.7643 20.4749L25.4005 33.5082L26.972 34.9332L27.7453 81.4509C7.67841 84.2737 2.07568 90.2368 1 107.789L6.18592 275.235C18.2849 283.159 28.6699 284.761 49.803 285.06L49.8051 285.145C71.518 283.817 81.9397 281.772 93.8051 273.145L90.8051 105.645C88.8732 88.1662 82.9859 82.4839 62.8051 80.6448L61.3051 34.1448L62.8051 32.6448L61.8051 19.6448L63.3051 17.1448C63.3051 17.1448 64.3051 2.64465 61.3051 2.64465C57.1434 1.39636 47.0931 1.18698 43.8399 1.15185Z" fill="#E5D3B5"/>
<path d="M43.8399 1.15185L43.34 1.16396L43.3517 1.64661L43.8345 1.65182L43.8399 1.15185ZM43.8379 1.06885L44.3377 1.05674L44.3253 0.544405L43.8135 0.569445L43.8379 1.06885ZM25.4332 3.47065L25.4577 3.97005L25.531 3.96647L25.6001 3.94198L25.4332 3.47065ZM24.144 18.0512L23.6474 18.1099L23.6615 18.2292L23.7283 18.329L24.144 18.0512ZM25.7643 20.4749L26.2641 20.4889L26.2685 20.3295L26.18 20.197L25.7643 20.4749ZM25.4005 33.5082L24.9007 33.4943L24.8943 33.7242L25.0647 33.8786L25.4005 33.5082ZM26.972 34.9332L27.472 34.9249L27.4683 34.7083L27.3079 34.5628L26.972 34.9332ZM27.7453 81.4509L27.815 81.9461L28.2526 81.8845L28.2453 81.4426L27.7453 81.4509ZM1 107.789L0.500936 107.758L0.499526 107.781L0.50024 107.804L1 107.789ZM6.18592 275.235L5.68616 275.251L5.69422 275.511L5.91199 275.654L6.18592 275.235ZM49.803 285.06L50.3028 285.047L50.2909 284.567L49.81 284.56L49.803 285.06ZM49.8051 285.145L49.3052 285.157L49.318 285.676L49.8356 285.644L49.8051 285.145ZM93.8051 273.145L94.0991 273.549L94.3096 273.396L94.305 273.136L93.8051 273.145ZM90.8051 105.645L91.305 105.636L91.3046 105.613L91.302 105.59L90.8051 105.645ZM62.8051 80.6448L62.3053 80.6609L62.3196 81.1026L62.7597 81.1427L62.8051 80.6448ZM61.3051 34.1448L60.9515 33.7912L60.7983 33.9444L60.8053 34.1609L61.3051 34.1448ZM62.8051 32.6448L63.1586 32.9983L63.3212 32.8357L63.3036 32.6064L62.8051 32.6448ZM61.8051 19.6448L61.3763 19.3875L61.2943 19.5242L61.3065 19.6831L61.8051 19.6448ZM63.3051 17.1448L63.7338 17.402L63.7956 17.299L63.8039 17.1792L63.3051 17.1448ZM61.3051 2.64465L61.1614 3.12357L61.2317 3.14465H61.3051V2.64465ZM44.3398 1.13975L44.3377 1.05674L43.338 1.08095L43.34 1.16396L44.3398 1.13975ZM43.8379 1.06885C43.8135 0.569445 43.8134 0.569449 43.8133 0.569455C43.8131 0.569461 43.813 0.569469 43.8127 0.56948C43.8123 0.569502 43.8116 0.569534 43.8108 0.569577C43.8091 0.569661 43.8066 0.569786 43.8032 0.569951C43.7966 0.570282 43.7867 0.570776 43.7737 0.571434C43.7478 0.572751 43.7093 0.574725 43.659 0.57737C43.5584 0.582661 43.4105 0.590634 43.2206 0.601394C42.8409 0.622912 42.2933 0.655582 41.621 0.700231C40.2767 0.789513 38.4323 0.926779 36.4331 1.11871C32.4587 1.50027 27.7947 2.10417 25.2664 2.99932L25.6001 3.94198C27.9926 3.09493 32.5309 2.49793 36.5286 2.11413C38.5155 1.92339 40.3496 1.78687 41.6873 1.69803C42.356 1.65362 42.9003 1.62115 43.2772 1.59979C43.4656 1.58911 43.6122 1.58121 43.7115 1.57599C43.7612 1.57338 43.799 1.57144 43.8244 1.57015C43.8371 1.56951 43.8466 1.56903 43.853 1.56871C43.8561 1.56856 43.8585 1.56844 43.8601 1.56836C43.8609 1.56832 43.8614 1.56829 43.8618 1.56828C43.862 1.56827 43.8621 1.56826 43.8622 1.56826C43.8623 1.56825 43.8623 1.56825 43.8379 1.06885ZM25.4088 2.97125C24.7986 3.00109 24.371 3.4016 24.0864 3.88598C23.8037 4.36733 23.6113 5.00855 23.4765 5.71724C23.2054 7.1422 23.1388 9.00123 23.165 10.8231C23.1913 12.6521 23.312 14.4733 23.4258 15.8352C23.4827 16.5167 23.538 17.0844 23.5791 17.4821C23.5997 17.6809 23.6167 17.8374 23.6286 17.9443C23.6345 17.9978 23.6392 18.0389 23.6424 18.0668C23.644 18.0808 23.6453 18.0914 23.6461 18.0986C23.6465 18.1022 23.6468 18.105 23.6471 18.1069C23.6472 18.1078 23.6473 18.1085 23.6473 18.109C23.6474 18.1093 23.6474 18.1095 23.6474 18.1096C23.6474 18.1098 23.6474 18.1099 24.144 18.0512C24.6405 17.9924 24.6405 17.9924 24.6405 17.9924C24.6405 17.9923 24.6405 17.9922 24.6404 17.992C24.6404 17.9916 24.6403 17.991 24.6402 17.9902C24.64 17.9886 24.6398 17.9861 24.6394 17.9828C24.6386 17.9761 24.6374 17.966 24.6359 17.9527C24.6328 17.9259 24.6283 17.886 24.6225 17.8337C24.6108 17.7292 24.5941 17.5753 24.5738 17.3793C24.5333 16.987 24.4786 16.4259 24.4223 15.7519C24.3096 14.4029 24.1908 12.6064 24.1649 10.8087C24.1389 9.00369 24.2073 7.22674 24.4589 5.90412C24.5854 5.23902 24.7513 4.72854 24.9487 4.39249C25.1443 4.05945 25.3188 3.97684 25.4577 3.97005L25.4088 2.97125ZM23.7283 18.329L25.3486 20.7528L26.18 20.197L24.5596 17.7733L23.7283 18.329ZM25.2645 20.461L24.9007 33.4943L25.9003 33.5222L26.2641 20.4889L25.2645 20.461ZM25.0647 33.8786L26.6362 35.3036L27.3079 34.5628L25.7364 33.1378L25.0647 33.8786ZM26.4721 34.9415L27.2454 81.4593L28.2453 81.4426L27.472 34.9249L26.4721 34.9415ZM27.6757 80.9558C17.6253 82.3696 11.064 84.5823 6.89765 88.7426C2.71971 92.9145 1.04066 98.9515 0.500936 107.758L1.49906 107.819C2.03502 99.0742 3.69518 93.3536 7.60425 89.4502C11.5249 85.5353 17.7984 83.3551 27.815 81.9461L27.6757 80.9558ZM0.50024 107.804L5.68616 275.251L6.68568 275.22L1.49976 107.773L0.50024 107.804ZM5.91199 275.654C18.1338 283.658 28.6386 285.261 49.7959 285.56L49.81 284.56C28.7012 284.262 18.4359 282.66 6.45984 274.817L5.91199 275.654ZM50.3049 285.132L50.3028 285.047L49.3031 285.072L49.3052 285.157L50.3049 285.132ZM93.511 272.74C81.7663 281.28 71.4665 283.319 49.7745 284.646L49.8356 285.644C71.5696 284.315 82.1131 282.264 94.0991 273.549L93.511 272.74ZM90.3051 105.654L93.3051 273.154L94.305 273.136L91.305 105.636L90.3051 105.654ZM62.7597 81.1427C72.8331 82.0607 79.2056 83.9319 83.3128 87.6506C87.4079 91.3584 89.3456 96.9911 90.3081 105.7L91.302 105.59C90.3327 96.8199 88.3608 90.8721 83.984 86.9093C79.6194 82.9575 72.9578 81.068 62.8504 80.1469L62.7597 81.1427ZM60.8053 34.1609L62.3053 80.6609L63.3048 80.6287L61.8048 34.1287L60.8053 34.1609ZM62.4515 32.2912L60.9515 33.7912L61.6586 34.4983L63.1586 32.9983L62.4515 32.2912ZM61.3065 19.6831L62.3065 32.6831L63.3036 32.6064L62.3036 19.6064L61.3065 19.6831ZM62.8763 16.8875L61.3763 19.3875L62.2338 19.902L63.7338 17.402L62.8763 16.8875ZM61.3051 3.14465C61.4441 3.14465 61.6224 3.21863 61.8341 3.54171C62.0477 3.86772 62.2383 4.36949 62.3971 5.02761C62.713 6.33637 62.8681 8.10785 62.9304 9.91194C62.9923 11.7088 62.9614 13.5089 62.9147 14.8619C62.8914 15.5378 62.8642 16.1009 62.8429 16.4947C62.8322 16.6915 62.823 16.846 62.8165 16.951C62.8133 17.0034 62.8107 17.0436 62.8089 17.0704C62.808 17.0839 62.8073 17.094 62.8069 17.1007C62.8067 17.104 62.8065 17.1065 62.8064 17.1081C62.8063 17.1089 62.8063 17.1095 62.8063 17.1099C62.8063 17.1101 62.8062 17.1102 62.8062 17.1103C62.8062 17.1104 62.8062 17.1104 63.3051 17.1448C63.8039 17.1792 63.8039 17.1791 63.8039 17.1789C63.8039 17.1788 63.8039 17.1786 63.8039 17.1783C63.804 17.1778 63.804 17.1771 63.8041 17.1761C63.8042 17.1742 63.8044 17.1715 63.8046 17.1678C63.8051 17.1606 63.8058 17.1499 63.8068 17.1359C63.8086 17.1079 63.8113 17.0666 63.8146 17.0129C63.8213 16.9055 63.8306 16.7484 63.8414 16.5488C63.8631 16.1495 63.8906 15.5798 63.9141 14.8964C63.9612 13.5305 63.9928 11.7056 63.9298 9.87748C63.867 8.05654 63.7096 6.20299 63.3692 4.79297C63.2 4.09171 62.9765 3.46065 62.6706 2.99369C62.3627 2.52379 61.916 2.14465 61.3051 2.14465V3.14465ZM43.8345 1.65182C45.4573 1.66934 48.7736 1.73034 52.2009 1.94236C55.646 2.15548 59.1436 2.51832 61.1614 3.12357L61.4487 2.16573C59.3049 1.52269 55.6965 1.15669 52.2627 0.944268C48.8111 0.730746 45.4758 0.669486 43.8453 0.651883L43.8345 1.65182Z" fill="black"/>
<path d="M25.5 33.5688C41.1 34.9632 49.1586 34.6833 62.5 32.5688" stroke="black"/>
<path d="M25.5 20.5688C41.1 21.9632 49.1586 21.6833 62.5 19.5688" stroke="black"/>
<mask id="path-5-inside-1_7720_15" fill="white">
<path fill-rule="evenodd" clip-rule="evenodd" d="M61.8944 20.8067C56.1686 21.1762 49.0612 21.5497 43.4999 21.5688C38.1618 21.5872 31.4913 21.2886 25.7509 20.9531L25.7642 20.4749L24.1439 18.0512C24.1439 18.0512 22.4368 3.6172 25.4332 3.47065C30.354 1.72845 43.8378 1.06885 43.8378 1.06885L43.8398 1.15185C47.093 1.18698 57.1433 1.39636 61.305 2.64465C64.305 2.64465 63.305 17.1448 63.305 17.1448L61.805 19.6448L61.8944 20.8067Z"/>
</mask>
<path fill-rule="evenodd" clip-rule="evenodd" d="M61.8944 20.8067C56.1686 21.1762 49.0612 21.5497 43.4999 21.5688C38.1618 21.5872 31.4913 21.2886 25.7509 20.9531L25.7642 20.4749L24.1439 18.0512C24.1439 18.0512 22.4368 3.6172 25.4332 3.47065C30.354 1.72845 43.8378 1.06885 43.8378 1.06885L43.8398 1.15185C47.093 1.18698 57.1433 1.39636 61.305 2.64465C64.305 2.64465 63.305 17.1448 63.305 17.1448L61.805 19.6448L61.8944 20.8067Z" fill="#FFC986"/>
<path d="M61.8944 20.8067L61.9588 21.8046L62.9691 21.7395L62.8914 20.73L61.8944 20.8067ZM43.4999 21.5688L43.5034 22.5688L43.5034 22.5688L43.4999 21.5688ZM25.7509 20.9531L24.7513 20.9252L24.7242 21.8948L25.6925 21.9514L25.7509 20.9531ZM25.7642 20.4749L26.7638 20.5028L26.7727 20.1841L26.5956 19.9191L25.7642 20.4749ZM24.1439 18.0512L23.1508 18.1686L23.179 18.4072L23.3126 18.6069L24.1439 18.0512ZM25.4332 3.47065L25.482 4.46946L25.6286 4.46229L25.7669 4.41331L25.4332 3.47065ZM43.8378 1.06885L44.8375 1.04464L44.8127 0.0199625L43.789 0.070042L43.8378 1.06885ZM43.8398 1.15185L42.8401 1.17607L42.8635 2.14137L43.829 2.1518L43.8398 1.15185ZM61.305 2.64465L61.0177 3.60249L61.1582 3.64465H61.305V2.64465ZM63.305 17.1448L64.1625 17.6593L64.2861 17.4533L64.3026 17.2136L63.305 17.1448ZM61.805 19.6448L60.9475 19.1303L60.7835 19.4036L60.8079 19.7215L61.805 19.6448ZM61.83 19.8088C56.108 20.178 49.0258 20.5498 43.4965 20.5689L43.5034 22.5688C49.0967 22.5496 56.2292 22.1744 61.9588 21.8046L61.83 19.8088ZM43.4965 20.5689C38.1901 20.5871 31.5445 20.29 25.8092 19.9548L25.6925 21.9514C31.4381 22.2872 38.1335 22.5873 43.5034 22.5688L43.4965 20.5689ZM24.7646 20.447L24.7513 20.9252L26.7505 20.981L26.7638 20.5028L24.7646 20.447ZM23.3126 18.6069L24.9329 21.0307L26.5956 19.9191L24.9752 17.4954L23.3126 18.6069ZM25.3843 2.47184C24.5384 2.51322 23.9842 3.07267 23.6553 3.63272C23.3298 4.18672 23.1242 4.89331 22.9852 5.62381C22.7044 7.09993 22.6386 9 22.665 10.8303C22.6916 12.6749 22.8132 14.5085 22.9274 15.8768C22.9847 16.562 23.0403 17.133 23.0817 17.5335C23.1024 17.7338 23.1196 17.8915 23.1316 17.9997C23.1376 18.0537 23.1424 18.0955 23.1456 18.1239C23.1473 18.1381 23.1485 18.149 23.1494 18.1565C23.1498 18.1603 23.1502 18.1632 23.1504 18.1652C23.1505 18.1662 23.1506 18.167 23.1507 18.1676C23.1507 18.1678 23.1508 18.1681 23.1508 18.1682C23.1508 18.1685 23.1508 18.1686 24.1439 18.0512C25.137 17.9337 25.137 17.9338 25.137 17.9337C25.137 17.9337 25.137 17.9336 25.1369 17.9334C25.1369 17.9331 25.1369 17.9326 25.1368 17.9319C25.1366 17.9304 25.1363 17.9281 25.1359 17.9249C25.1352 17.9185 25.1341 17.9087 25.1326 17.8956C25.1295 17.8694 25.1251 17.8301 25.1193 17.7784C25.1078 17.6751 25.0912 17.5225 25.0711 17.3278C25.0308 16.9384 24.9765 16.3806 24.9205 15.7103C24.8084 14.3677 24.6904 12.5836 24.6648 10.8015C24.6389 9.00492 24.7081 7.26901 24.95 5.99755C25.0724 5.35426 25.225 4.90915 25.3797 4.64574C25.5309 4.38838 25.5789 4.46472 25.482 4.46946L25.3843 2.47184ZM43.8378 1.06885C43.789 0.070042 43.7889 0.0700472 43.7887 0.0700548C43.7886 0.0700608 43.7884 0.070071 43.7881 0.0700829C43.7877 0.0701066 43.787 0.0701404 43.7861 0.0701844C43.7843 0.0702723 43.7817 0.0704008 43.7783 0.07057C43.7715 0.0709085 43.7615 0.0714099 43.7484 0.0720759C43.7221 0.0734079 43.6833 0.0753984 43.6327 0.0780603C43.5314 0.083384 43.3828 0.0913941 43.1923 0.102194C42.8111 0.123794 42.2619 0.156561 41.5878 0.20133C40.2401 0.290835 38.3907 0.428472 36.3852 0.621C32.4225 1.00144 27.6957 1.60879 25.0994 2.52799L25.7669 4.41331C28.0915 3.59031 32.567 2.99676 36.5764 2.61185C38.557 2.4217 40.3861 2.28555 41.7204 2.19693C42.3872 2.15264 42.9299 2.12027 43.3054 2.09899C43.4931 2.08835 43.639 2.08049 43.7377 2.0753C43.787 2.07271 43.8246 2.07078 43.8496 2.06951C43.8622 2.06887 43.8716 2.0684 43.8778 2.06809C43.8809 2.06794 43.8832 2.06783 43.8847 2.06775C43.8854 2.06772 43.886 2.06769 43.8863 2.06767C43.8865 2.06766 43.8866 2.06766 43.8866 2.06766C43.8867 2.06765 43.8867 2.06765 43.8378 1.06885ZM44.8395 1.12764L44.8375 1.04464L42.8381 1.09306L42.8401 1.17607L44.8395 1.12764ZM61.5923 1.68681C59.3855 1.02487 55.7217 0.6573 52.2935 0.445222C48.8298 0.230951 45.4849 0.169556 43.8506 0.151912L43.829 2.1518C45.4479 2.16927 48.7548 2.23013 52.17 2.44141C55.6207 2.65487 59.0629 3.01614 61.0177 3.60249L61.5923 1.68681ZM63.305 17.1448C64.3026 17.2136 64.3026 17.2134 64.3026 17.2132C64.3027 17.2131 64.3027 17.2128 64.3027 17.2125C64.3027 17.2119 64.3028 17.2111 64.3029 17.2101C64.303 17.2081 64.3032 17.2052 64.3034 17.2014C64.304 17.1939 64.3047 17.183 64.3056 17.1687C64.3075 17.1401 64.3102 17.0982 64.3136 17.0439C64.3203 16.9352 64.3297 16.7769 64.3406 16.5758C64.3624 16.1738 64.3901 15.6008 64.4138 14.9136C64.4611 13.5413 64.493 11.704 64.4294 9.86025C64.3663 8.03088 64.2078 6.1363 63.8552 4.67565C63.6807 3.95282 63.4408 3.25712 63.0887 2.71968C62.7328 2.17637 62.152 1.64465 61.305 1.64465V3.64465C61.208 3.64465 61.2522 3.56606 61.4158 3.81572C61.5832 4.07126 61.7574 4.50838 61.911 5.14493C62.2147 6.40306 62.3687 8.13351 62.4306 9.92917C62.492 11.7104 62.4614 13.4981 62.415 14.8447C62.3918 15.5168 62.3648 16.0766 62.3436 16.4676C62.333 16.6631 62.3239 16.8162 62.3174 16.92C62.3142 16.9719 62.3116 17.0114 62.3099 17.0377C62.3091 17.0508 62.3084 17.0607 62.308 17.0671C62.3077 17.0703 62.3076 17.0727 62.3075 17.0741C62.3074 17.0749 62.3074 17.0754 62.3074 17.0757C62.3074 17.0759 62.3074 17.0759 62.3074 17.076C62.3074 17.076 62.3074 17.076 63.305 17.1448ZM62.6625 20.1593L64.1625 17.6593L62.4475 16.6303L60.9475 19.1303L62.6625 20.1593ZM62.8914 20.73L62.802 19.5681L60.8079 19.7215L60.8973 20.8834L62.8914 20.73Z" fill="black" mask="url(#path-5-inside-1_7720_15)"/>
<path d="M43.0001 6.06882C35.7537 6.23742 22.5 6.06882 25.0001 3.56882C27.5003 1.06882 35.6505 1.28563 43.0001 1.06882C50.4808 0.848139 61.0001 1.069 62.5001 3.06878C64.0001 5.06856 50.482 5.89474 43.0001 6.06882Z" fill="#B48156" stroke="black"/>
</svg>
